HIERARCHY
ROOT Hips
{
	OFFSET -14.64140 90.27770 -84.91600
	CHANNELS 6 Xposition Yposition Zposition Zrotation Xrotation Yrotation
	JOINT Spine
	{
		OFFSET 0.00000 13.20850 -1.60436
		CHANNELS 3 Zrotation Xrotation Yrotation
		JOINT Spine1
		{
			OFFSET 0.00000 8.61716 0.00000
			CHANNELS 3 Zrotation Xrotation Yrotation
			JOINT Spine2
			{
				OFFSET 0.00000 8.61717 0.00000
				CHANNELS 3 Zrotation Xrotation Yrotation
				JOINT Spine3
				{
					OFFSET 0.00000 8.61717 0.00000
					CHANNELS 3 Zrotation Xrotation Yrotation
					JOINT Neck
					{
						OFFSET 0.00000 11.07920 1.10792
						CHANNELS 3 Zrotation Xrotation Yrotation
						JOINT Neck1
						{
							OFFSET 0.00000 7.08032 0.00000
							CHANNELS 3 Zrotation Xrotation Yrotation
							JOINT Head
							{
								OFFSET 0.00000 7.08031 0.00000
								CHANNELS 3 Zrotation Xrotation Yrotation
								End site
								{
									OFFSET 0.00000 0.00000 0.00000
								}
							}
						}
					}
					JOINT RightShoulder
					{
						OFFSET -0.01000 7.91373 5.19711
						CHANNELS 3 Zrotation Xrotation Yrotation
						JOINT RightArm
						{
							OFFSET -18.41580 0.00000 0.00000
							CHANNELS 3 Zrotation Xrotation Yrotation
							JOINT RightForeArm
							{
								OFFSET -29.11090 0.00000 0.00000
								CHANNELS 3 Zrotation Xrotation Yrotation
								JOINT RightHand
								{
									OFFSET -24.65040 0.00000 0.00000
									CHANNELS 3 Zrotation Xrotation Yrotation
									JOINT RightHandThumb1
									{
										OFFSET -5.35114 -0.85590 3.97906
										CHANNELS 3 Zrotation Xrotation Yrotation
										JOINT RightHandThumb2
										{
											OFFSET -4.52789 0.00000 0.00000
											CHANNELS 3 Zrotation Xrotation Yrotation
											JOINT RightHandThumb3
											{
												OFFSET -2.46976 0.00000 0.00000
												CHANNELS 3 Zrotation Xrotation Yrotation
												End site
												{
													OFFSET 0.00000 0.00000 0.00000
												}
											}
										}
									}
									JOINT RightHandIndex1
									{
										OFFSET -14.26970 0.00000 2.88139
										CHANNELS 3 Zrotation Xrotation Yrotation
										JOINT RightHandIndex2
										{
											OFFSET -5.48836 0.00000 0.00000
											CHANNELS 3 Zrotation Xrotation Yrotation
											JOINT RightHandIndex3
											{
												OFFSET -3.01859 0.00000 0.00000
												CHANNELS 3 Zrotation Xrotation Yrotation
												End site
												{
													OFFSET 0.00000 0.00000 0.00000
												}
											}
										}
									}
									JOINT RightHandMiddle1
									{
										OFFSET -14.26970 0.00000 -0.09147
										CHANNELS 3 Zrotation Xrotation Yrotation
										JOINT RightHandMiddle2
										{
											OFFSET -6.17441 0.00000 0.00000
											CHANNELS 3 Zrotation Xrotation Yrotation
											JOINT RightHandMiddle3
											{
												OFFSET -3.56743 0.00000 0.00000
												CHANNELS 3 Zrotation Xrotation Yrotation
												End site
												{
													OFFSET 0.00000 0.00000 0.00000
												}
											}
										}
									}
									JOINT RightHandRing1
									{
										OFFSET -12.69180 0.00000 -3.06433
										CHANNELS 3 Zrotation Xrotation Yrotation
										JOINT RightHandRing2
										{
											OFFSET -5.62556 0.00000 0.00000
											CHANNELS 3 Zrotation Xrotation Yrotation
											JOINT RightHandRing3
											{
												OFFSET -3.56744 0.00000 0.00000
												CHANNELS 3 Zrotation Xrotation Yrotation
												End site
												{
													OFFSET 0.00000 0.00000 0.00000
												}
											}
										}
									}
									JOINT RightHandPinky1
									{
										OFFSET -11.11390 0.00000 -6.03719
										CHANNELS 3 Zrotation Xrotation Yrotation
										JOINT RightHandPinky2
										{
											OFFSET -4.52789 0.00000 0.00000
											CHANNELS 3 Zrotation Xrotation Yrotation
											JOINT RightHandPinky3
											{
												OFFSET -2.46976 0.00000 0.00000
												CHANNELS 3 Zrotation Xrotation Yrotation
												End site
												{
													OFFSET 0.00000 0.00000 0.00000
												}
											}
										}
									}
								}
							}
						}
					}
					JOINT LeftShoulder
					{
						OFFSET 0.01000 7.91373 5.19711
						CHANNELS 3 Zrotation Xrotation Yrotation
						JOINT LeftArm
						{
							OFFSET 18.41580 0.00000 0.00000
							CHANNELS 3 Zrotation Xrotation Yrotation
							JOINT LeftForeArm
							{
								OFFSET 29.11090 0.00000 0.00000
								CHANNELS 3 Zrotation Xrotation Yrotation
								JOINT LeftHand
								{
									OFFSET 24.65040 0.00000 0.00000
									CHANNELS 3 Zrotation Xrotation Yrotation
									JOINT LeftHandThumb1
									{
										OFFSET 5.35114 -0.85590 3.97906
										CHANNELS 3 Zrotation Xrotation Yrotation
										JOINT LeftHandThumb2
										{
											OFFSET 4.52789 0.00000 0.00000
											CHANNELS 3 Zrotation Xrotation Yrotation
											JOINT LeftHandThumb3
											{
												OFFSET 2.46977 0.00000 0.00000
												CHANNELS 3 Zrotation Xrotation Yrotation
												End site
												{
													OFFSET 0.00000 0.00000 0.00000
												}
											}
										}
									}
									JOINT LeftHandIndex1
									{
										OFFSET 14.26970 0.00000 2.88139
										CHANNELS 3 Zrotation Xrotation Yrotation
										JOINT LeftHandIndex2
										{
											OFFSET 5.48836 0.00000 0.00000
											CHANNELS 3 Zrotation Xrotation Yrotation
											JOINT LeftHandIndex3
											{
												OFFSET 3.01859 0.00000 0.00000
												CHANNELS 3 Zrotation Xrotation Yrotation
												End site
												{
													OFFSET 0.00000 0.00000 0.00000
												}
											}
										}
									}
									JOINT LeftHandMiddle1
									{
										OFFSET 14.26970 0.00000 -0.09147
										CHANNELS 3 Zrotation Xrotation Yrotation
										JOINT LeftHandMiddle2
										{
											OFFSET 6.17440 0.00000 0.00000
											CHANNELS 3 Zrotation Xrotation Yrotation
											JOINT LeftHandMiddle3
											{
												OFFSET 3.56744 0.00000 0.00000
												CHANNELS 3 Zrotation Xrotation Yrotation
												End site
												{
													OFFSET 0.00000 0.00000 0.00000
												}
											}
										}
									}
									JOINT LeftHandRing1
									{
										OFFSET 12.69180 0.00000 -3.06433
										CHANNELS 3 Zrotation Xrotation Yrotation
										JOINT LeftHandRing2
										{
											OFFSET 5.62556 0.00000 0.00000
											CHANNELS 3 Zrotation Xrotation Yrotation
											JOINT LeftHandRing3
											{
												OFFSET 3.56744 0.00000 0.00000
												CHANNELS 3 Zrotation Xrotation Yrotation
												End site
												{
													OFFSET 0.00000 0.00000 0.00000
												}
											}
										}
									}
									JOINT LeftHandPinky1
									{
										OFFSET 11.11390 0.00000 -6.03719
										CHANNELS 3 Zrotation Xrotation Yrotation
										JOINT LeftHandPinky2
										{
											OFFSET 4.52789 0.00000 0.00000
											CHANNELS 3 Zrotation Xrotation Yrotation
											JOINT LeftHandPinky3
											{
												OFFSET 2.46976 0.00000 0.00000
												CHANNELS 3 Zrotation Xrotation Yrotation
												End site
												{
													OFFSET 0.00000 0.00000 0.00000
												}
											}
										}
									}
								}
							}
						}
					}
					JOINT pCube4
					{
						OFFSET 0.00000 10.91090 1.10792
						CHANNELS 3 Zrotation Xrotation Yrotation
						End site
						{
							OFFSET 0.00000 0.00000 0.00000
						}
					}
				}
			}
		}
	}
	JOINT RightUpLeg
	{
		OFFSET -9.98441 0.00000 0.00000
		CHANNELS 3 Zrotation Xrotation Yrotation
		JOINT RightLeg
		{
			OFFSET 0.00000 -42.11790 0.00000
			CHANNELS 3 Zrotation Xrotation Yrotation
			JOINT RightFoot
			{
				OFFSET 0.00000 -45.00020 -0.00001
				CHANNELS 3 Zrotation Xrotation Yrotation
				JOINT RightForeFoot
				{
					OFFSET 0.00000 -3.74820 0.00000
					CHANNELS 3 Zrotation Xrotation Yrotation
					JOINT RightToeBase
					{
						OFFSET 0.00000 0.06325 14.43120
						CHANNELS 3 Zrotation Xrotation Yrotation
						End site
						{
							OFFSET 0.00000 0.00000 0.00000
						}
					}
				}
			}
		}
	}
	JOINT LeftUpLeg
	{
		OFFSET 9.98441 0.00000 0.00000
		CHANNELS 3 Zrotation Xrotation Yrotation
		JOINT LeftLeg
		{
			OFFSET 0.00000 -42.11800 0.00000
			CHANNELS 3 Zrotation Xrotation Yrotation
			JOINT LeftFoot
			{
				OFFSET 0.00000 -45.00070 0.00000
				CHANNELS 3 Zrotation Xrotation Yrotation
				JOINT LeftForeFoot
				{
					OFFSET 0.00000 -3.74824 0.00000
					CHANNELS 3 Zrotation Xrotation Yrotation
					JOINT LeftToeBase
					{
						OFFSET 0.00000 0.06325 14.43110
						CHANNELS 3 Zrotation Xrotation Yrotation
						End site
						{
							OFFSET 0.00000 0.00000 0.00000
						}
					}
				}
			}
		}
	}
}
MOTION
Frames: 4
Frame Time: 0.050000
-0.008033896636405262 0.007524886617694182 -0.02262092285680271 0.03963086688716157 0.02931984960554844 -0.0002746133011525253 -1.3098108010279428 1.3792333393296707 -0.9881032848733718 -0.44676001300332635 3.963495891652823 0.3658029389669455 -0.8122486914013337 -1.864280613527492 1.9525375364263895 -1.3452001245754415 -0.8808102090131449 -0.32957950521464774 -0.21352443319946465 14.899598053142721 1.0310501291177363 0.5714043776881672 -0.22453621242611513 0.6728331807786495 0.45071351907613966 -15.205115199283947 0.05977343672955464 -4.648315104813734 1.8143695913247995 -13.654844749137526 69.06821905319136 -1.3532587718112794 47.2229847212718 9.350213945664768 6.014554101354258 109.81734683193562 18.998577810743278 -0.5814741146457642 -1.0155008784036144 4.518313674112517 -0.13495220547167397 -1.5716187738566856 -0.009922488005878864 -0.020388180545786245 -56.274507482235755 -0.013130102710519858 0.010353432530537419 -56.19818696396121 -38.76657655613197 -0.019203130717003844 0.04278698007183202 -0.008162852163560793 -0.044512291112091214 -0.026739048928129845 -0.014867029658400711 0.012201306906818764 0.014673618073802547 -36.67759167721706 -0.0240543902944278 0.026466466799058955 -0.030010758655708694 -0.009700900159458766 -0.009025642156691702 -0.02646235730469784 0.0038982553062472227 -0.04306794832822857 -19.773745623536275 -0.010886197328860632 0.032845321251244806 0.01434295594053205 0.04575153571119827 0.0014514717502717596 0.03612222961624346 -0.014914059432655483 0.04669322810984715 24.048143918977964 0.0029245842560117743 -0.04540221431412101 28.90328864004686 0.014545927218831618 -0.03916024985667117 28.87888896953891 -0.03395983887843516 0.033191263100673586 5.329884841098111 1.370474796765372 13.396286248812084 -70.75067973352566 17.039120754360237 -25.279666937907884 0.4421238866129535 -3.114745524077658 -97.94822848230993 -18.77789283846238 8.808151679655236 -7.9651111355567465 -0.4743242501510649 0.10874988674287782 -8.083031688045098 0.02105390052078061 -0.022536071153070568 44.545476701928266 -0.044872327554708456 -0.0018244485350570995 44.541198695201714 12.413796184924808 -0.03603230241853862 -0.010876489482854535 -0.005730385817589817 0.04328792360285924 0.027249268685422223 -0.009042749313303759 0.004093315705918611 0.02264163771881849 11.152678675909751 -0.01786807438531376 0.042057858333799 0.02509912742876191 0.0027198664827882296 -0.02945627408270765 -0.016851097427754532 0.04774417689261216 -0.03174118311734688 4.814249664581934 0.022409882332708096 0.002759186433071574 0.04174325132464339 -0.009931725818541286 0.0018454439847653437 0.03751398034550399 -0.008211496253199075 0.04461167387269089 -5.604430746809373 -0.016730806416645632 0.04954000425593749 -6.73454254502278 0.0020712764805193335 -0.018311605365364882 -6.737636940944707 0.04958564763380774 -0.029473207077737054 -0.037413558115527316 -0.0037011978306141315 0.03788697815536244 8.056019959678858 3.531789485142292 -19.234130885790783 -0.04233091480923466 10.400997638146409 0.038573569273735 -5.642913997808952 -15.61475322542868 3.1629600874553163 0.017311459458107487 0.014461539233702431 -0.0020683304575656912 -0.035562013573832 4.715498793192201 -0.04334114795621133 12.445996725469797 -8.241518979044727 6.895297357740366 -0.048457420161186156 46.349966555204524 -0.027833710826345823 -4.3661185681542465 -14.726035714608708 -3.7889149874360735 -0.048860972777085 -0.04574929207925107 0.008690852146667363 -0.04009810920796389 -10.763780082492787 -0.01656562183219489 
-0.005131157046120963 -0.04595908536422254 -0.034923768335531395 -0.004687319159755533 0.03500894818709524 -0.019038284588006507 -1.4429482476625894 1.289135397451768 -0.9688575000735142 -0.42840545881255143 3.9673934763040135 0.38047798585433584 -0.7616425669392279 -1.921573561957222 1.879497560696764 -1.3726525805755325 -0.9020758308063791 -0.3174306399204449 -0.2544221808074141 15.130343362339584 1.19898279338189 0.5973261408671499 -0.30414590752047854 1.2295212561574453 0.44844369818051455 -15.397459158401672 0.06384322397206119 -4.4707275588302755 1.7080474598652609 -13.733268310570542 69.52568617880414 -0.33383991640902777 47.19553659914951 8.615898138670175 5.652989876523045 111.05144637704952 18.91074738086914 -0.5181313341804729 -0.9908347954839044 4.536277126763705 -0.16932551637946955 -1.5946117824853827 0.021393336977362468 -0.02453550792268744 -56.2366337258048 0.04028776618764269 0.00488625146357125 -56.23678635016872 -38.77386708583637 0.01932483736398926 -0.007803506473237175 0.02660318310407492 -0.005055204206815834 0.014605836673122215 0.015786825660526246 -0.024922310096762594 -0.012117615194165895 -36.68389893439583 0.016294946414318195 0.023321984190117277 0.02237752346482304 0.012924707610812353 -0.026274727240986576 -0.03504639871702762 0.021377709359075042 0.04080054302409038 -19.74294716773712 0.009993258598416745 0.03558047719444626 -0.00484272991412159 0.047925556428297315 -0.028148479881992896 0.029816461740573237 0.0001403200438615308 0.04208545222295901 24.05173274371793 0.001456327237368923 -0.0120530219353762 28.841095855085804 0.0256081083858767 -0.029860375083062708 28.840331681870246 -0.03615280924611781 -0.03969341359669964 5.680470157612624 1.3646832812166587 13.514470987653349 -70.48264742648979 17.759684978266865 -27.072505469363122 2.9570754743987018 -4.167047155650788 -101.06095711832094 -18.24401783723352 8.960243307894606 -8.095769283626973 -0.49322589307684384 0.04464369100002148 -8.128579092841784 0.019110954610602606 0.018097053205820182 44.53072915685462 0.04444792052066 -0.02757067500468593 44.52139318537396 12.428926947871956 -0.010881828715625309 0.004487592147305028 0.019250218996722447 -0.032685660196889406 -0.019391627718085523 -0.018245148581938212 -0.04376237587497195 -0.026916534198362884 11.084737000849955 0.014886453425426514 0.024035122347686035 -0.03908496530457141 0.010745831197039233 0.0317949934207185 -0.04173978831825511 0.009557085571501945 0.025353291197192096 4.763187593542446 -0.04972086817746186 0.03702679352718317 0.0010825146218032772 -0.030895353108077634 0.0006418391142940106 0.048614147703446464 0.034778568050848155 -0.008788450260723788 -5.6157781854271285 0.0044042135245204485 -0.04682156534798795 -6.727944966702829 -0.016874060666525265 0.008380341199683545 -6.731180270270577 0.009110556907513421 -0.004941802337466509 0.04209512900679871 -0.017052175740938084 -0.03397177560506223 8.038327050625293 3.512748207902665 -19.26855483859079 0.02378696752941126 10.443149475906626 0.028323541280409967 -5.628079170203001 -15.654621904261063 3.212525512544369 0.037863305462326004 0.04064368111684426 -0.01649854746593944 -0.013698878082324055 4.70154506721089 -0.0317825705831153 12.471209682275077 -8.232782093548868 6.899802595546589 -0.027045704819715292 46.34559747187722 0.037863487400695374 -4.320044415429329 -14.789984936435243 -3.841375737207115 0.004762001818660552 -0.008759345743817216 0.023979226426296383 0.02718873314741777 -10.758901520433325 -0.0049580746467400415 
0.04752931338876823 0.014514773951098748 0.0008468301470989965 0.011212029560455038 -0.023703326225525775 0.02366414404577219 -1.402681073710664 1.2666816565211643 -0.9962799648633253 -0.4064238019544191 3.9705573003316457 0.37033226493604987 -0.8142101119125253 -1.8910193932217256 1.7083866093025264 -1.3610529811668837 -0.8219153397963629 -0.3006784939540775 -0.35392662503942796 15.315006664029534 1.2371928646352157 0.6009294482129015 -0.32608069197935197 1.427607927708835 0.4081738425640497 -15.559365660425458 0.0757449098460295 -4.46206150481622 1.6798459305404472 -13.761558200985588 70.25265780629367 0.3702619999475694 47.33608879749317 7.5015308329203085 5.276052956944227 112.43010772853043 18.60395172437316 -0.5550137096058431 -1.0463741172122658 4.53382716745471 -0.10881672677540173 -1.5892243035163776 0.04545941926520995 0.01988506924345702 -56.200153732031495 0.0479462260340924 -0.013199566897626398 -56.28172287909011 -38.77464351011416 -0.0010397948240387885 -0.022470386455070688 0.004780510982742449 -0.004841106772225457 0.02334608386114754 -0.04004641404718926 -0.025824683738992472 -0.004472436363662329 -36.70583133359427 -0.003980712924796936 -0.00285071427954322 -0.00040676550369503345 0.049947627789122186 0.004899438556562086 0.019972204009288914 0.0348411832393283 0.00636245806353743 -19.77353969089148 -0.0022492733271591756 -0.026604039234555604 -0.03327868906321458 -0.034712470265797095 -0.029867753351557592 0.04677379381757496 0.04647141504978312 -0.041084163619240444 24.057458803909142 -0.04018227528621397 0.0401568956207369 28.872922441863803 -0.045988578879150026 -0.019625628832210595 28.867817710618883 -0.018303143852897805 -0.04477278969791959 5.90487835025602 1.4038312194311449 13.456040105291631 -70.27810890117081 18.375546246172007 -28.69835197292591 5.120431485080363 -5.09791013334628 -103.6782815932793 -17.485527827572128 8.82012323842478 -8.059169734289222 -0.45599510793014425 0.09126832751497706 -8.080568512422724 -0.03683897912582854 -0.01588595777752205 44.5465534772193 0.016399896218810984 -0.011119940242809372 44.583774971270294 12.440476162586638 -0.0022174828562507303 -0.0029290979210436405 -0.035032228008879236 -0.02759987243273909 0.014935102664468815 -0.012983647774912574 -0.013840532181152798 0.030257394994938618 11.142834019754188 0.048927940945312304 -0.023306573466322304 0.022265087397300508 -0.032933246285659565 0.0293723343585627 -0.03984385894754428 0.022039285958426465 -0.018448068701435946 4.783530133218757 0.005485022710513529 -0.03998286222915584 0.015651199037888915 -0.012987950505730584 -0.033181202750078194 -0.031049141277121935 0.006808112269197663 -0.0014564073002352378 -5.570563094041021 0.01353312012447148 0.013832300474415792 -6.724131774453907 0.014558175654852935 0.035426238930082 -6.7212997889864265 -0.03508941005218546 0.048327261188356445 0.022718871489907973 0.03383908765344635 -0.016926192404839304 8.031821052627386 3.5143614065440483 -19.17665950918193 -0.010712847045894735 10.381955508884529 0.05610390841730828 -5.6100768621088255 -15.640258825307578 3.187630141473041 -0.0287158688639253 0.004027377262553794 0.03174813904047248 -0.004936101282354046 4.739772519025669 0.018233432746466105 12.495957765323643 -8.226558767405324 6.886973032361019 -0.015216903945955722 46.40329983407926 0.049456006714716165 -4.308851291472824 -14.763993294633133 -3.8035599653342054 0.02541431371881141 0.011923456585212466 -0.01837874334809964 2.2794442047125598e-05 -10.757192517791008 0.0023318637727292755 
-0.0022965701471350532 -0.02495629861685009 0.0097054050012063 -0.04982845446288118 -0.020622929161298306 -0.04642699174762424 -1.3748080383471533 1.1939076483637305 -0.9904823755209602 -0.41341901805656767 4.057357567738081 0.30760228726416633 -0.8348541610647433 -1.9730687114809258 1.6510294023789205 -1.2802764807046016 -0.7865912662264372 -0.32596150335026347 -0.3791418227722793 15.516640741790239 1.2611645181974922 0.5529964141908339 -0.3855716487919264 1.6057656102402955 0.41810292066600596 -15.716042141876665 0.0703918093185673 -4.539594756496864 1.7070419371793237 -13.792026446457621 70.7133399638277 1.8195322151620164 47.56579024258197 6.247725963461631 4.690674298322169 113.6785052690465 18.228160230475986 -0.5549752927511791 -1.0008000970444244 4.513144545298277 -0.11072482272993886 -1.5446251760982637 -0.024330254585514584 0.002193250653600413 -56.243240557205276 -0.014777673834115603 -0.010440580548845398 -56.20359727603185 -38.75447758349985 0.018989072724211634 0.042370487763097195 -0.004962119155435855 0.04997016237969636 -9.674211553403482e-05 -0.028900795394778293 -0.033279703880066486 -0.019844257629563815 -36.730778652950676 -0.007532348118972194 0.04701117110602919 -0.01297399196204759 0.002898478343042233 -0.02043642723635117 0.01878966524455982 0.02859781779404343 -0.001300081146191756 -19.77185099475661 -0.04794205155080702 -0.049797237765138475 0.028627501776867063 -0.027497100270227635 -0.00541727741925366 -0.005590940301224462 0.023343113534553643 0.01930543738632755 24.074446131381592 -0.0066512425912201014 0.04929853229082351 28.851376088863095 0.028325130965066704 -0.04172417714740108 28.90198852780788 0.04517714242351096 -0.018009305637306655 6.240296769995722 1.4600384462805427 13.505407100510844 -70.11938767006198 18.929672103231717 -30.264453058350185 6.538007641585964 -5.62384875250744 -105.72529018171 -16.784818142067195 8.494761981384364 -7.859285911402536 -0.47794539137025144 0.05524633015062551 -8.169262385807333 0.005507374005362854 -0.012080353659817583 44.61266807529992 0.04591242016126205 -0.014641891992208375 44.59741836712646 12.443177132113053 0.003153193325886735 0.019165348761505024 0.013029268017593906 0.04896564518924435 0.004335753803091015 -0.01428500018789261 0.023566723276993773 0.02425291363048777 11.119088269850478 -0.013517308947446346 -0.00891858964482094 0.03921078011298895 -0.0026920893432963696 -0.0025531448747272614 -0.01603379461948954 -0.036465283002358836 0.004545343117529716 4.7831885933452645 0.03687270719270538 0.04581163143511045 -0.03407049608492863 -0.016268843628081314 -0.04323832692140771 0.043622045919961334 0.005348036814628456 -0.01798510120344708 -5.611213408015918 -0.00432975564149317 -0.04356595021694989 -6.745994392750761 0.029913350503233814 -0.01167535946387418 -6.694643962140587 -0.035576906642149686 0.04820788317050454 0.033775672488589925 0.019909615187544256 -0.012837733394497246 8.052169059273652 3.489200667204133 -19.18495371059293 -0.041868182333205876 10.381526572688557 0.058332116148014215 -5.582889131081625 -15.68249459174064 3.180646672905313 0.029408413556290192 -0.04809340361621454 0.017787339833113675 0.047119206670221056 4.720042587781103 0.015152715151397956 12.435138931184495 -8.190251659206123 6.879289269987271 -0.016666472955722943 46.37652934806676 0.042952641519097126 -4.327760837553092 -14.789213653211906 -3.836937441184047 -0.016292437439080817 0.03571238723570049 -0.018023978106183444 0.017202194872735665 -10.710426268330593 -0.039888628462811715 
